<?xml version="1.0" encoding="UTF-8"?>
<svg  viewBox="0 0 24 24" stroke="currentColor" xmlns="http://www.w3.org/2000/svg" xmlns:xlink="http://www.w3.org/1999/xlink" version="1.1">
 <!-- Generated by Pixelmator Pro 2.1.3 -->
 <path id="Path" d="M5 22 C2.238 22 0 20.041 0 17.625 L0 5.375 C0 2.959 2.238 1 5 1 L19 1 C21.762 1 24 2.959 24 5.375 L24 17.625 C24 20.041 21.762 22 19 22 L5 22 Z M4.092 17.801 L13.908 17.801 C14.511 17.801 15 17.094 15 16.225 15 15.355 14.511 14.65 13.908 14.65 L4.092 14.65 C3.489 14.65 3 15.355 3 16.225 3 17.094 3.489 17.801 4.092 17.801 Z M19.5 17.801 C20.328 17.801 21 17.129 21 16.301 L21 16.15 C21 15.322 20.328 14.65 19.5 14.65 18.672 14.65 18 15.322 18 16.15 L18 16.301 C18 17.129 18.672 17.801 19.5 17.801 Z M2 11.5 L22 11.5 22 5.375 C22 3.928 20.654 2.75 19 2.75 L5 2.75 C3.346 2.75 2 3.928 2 5.375 L2 11.5 Z" />
</svg>
